<?xml version="1.0" encoding="UTF-8" standalone="no" ?>
<!DOCTYPE svg PUBLIC "-//W3C//DTD SVG 1.1//EN" "http://www.w3.org/Graphics/SVG/1.1/DTD/svg11.dtd">
<svg xmlns="http://www.w3.org/2000/svg" xmlns:xlink="http://www.w3.org/1999/xlink" version="1.1" width="1280" height="1024" viewBox="0 0 1280 1024" xml:space="preserve">
<desc>Created with Fabric.js 5.3.0</desc>
<defs>
</defs>
<g transform="matrix(1 0 0 1 640 512)" id="background-logo"  >
<rect style="stroke: none; stroke-width: 0; stroke-dasharray: none; stroke-linecap: butt; stroke-dashoffset: 0; stroke-linejoin: miter; stroke-miterlimit: 4; fill: rgb(12,19,29); fill-rule: nonzero; opacity: 1;"  paint-order="stroke"  x="-640" y="-512" rx="0" ry="0" width="1280" height="1024" />
</g>
<g transform="matrix(1.9211538461538462 0 0 1.9211538461538462 640 395.6864080388972)" id="logo-logo"  >
<g style=""  paint-order="stroke"   >
		<g transform="matrix(0.917930923744532 0 0 0.9179309237445321 0 0)"  >
<g style=""  paint-order="stroke"   >
		<g transform="matrix(1 0 0 1 0 0)"  >
<linearGradient id="SVGID_30909_39396" gradientUnits="userSpaceOnUse" gradientTransform="matrix(1 0 0 1 -100 -100)"  x1="0" y1="0" x2="0" y2="200">
<stop offset="0%" style="stop-color:rgb(23,234,217);stop-opacity: 1"/>
<stop offset="100%" style="stop-color:rgb(96,120,234);stop-opacity: 1"/>
</linearGradient>
<polygon style="stroke: none; stroke-width: 1; stroke-dasharray: none; stroke-linecap: butt; stroke-dashoffset: 0; stroke-linejoin: miter; stroke-miterlimit: 4; fill: url(#SVGID_30909_39396); fill-rule: nonzero; opacity: 1;"  paint-order="stroke"  points="100,100 0,100 0,95.12 95.12,95.12 95.12,-95.12 -95.12,-95.12 -95.12,0 -100,0 -100,-100 100,-100 100,100 " />
</g>
</g>
</g>
</g>
</g>
<g transform="matrix(1.9211538461538462 0 0 1.9211538461538462 641.1358822115386 667.1128161574082)" id="text-logo"  >
<g style=""  paint-order="stroke"   >
		<g transform="matrix(1 0 0 1 -5.684342e-14 0)" id="text-logo-path-0"  >
<path style="stroke: rgb(255,255,255); stroke-width: 0; stroke-dasharray: none; stroke-linecap: butt; stroke-dashoffset: 0; stroke-linejoin: miter; stroke-miterlimit: 4; fill: rgb(49,192,223); fill-rule: nonzero; opacity: 1;"  paint-order="stroke"  transform=" translate(-189.145, 19.25)" d="M 5.5 -38.5 L 5.5 0 L 19.25 0 L 19.25 -3.3 L 9.35 -3.3 L 9.35 -38.5 Z M 52.14 -38.5 L 43.34 -38.5 L 43.34 -35.2 L 45.82 -35.2 L 45.82 -3.3 L 43.34 -3.3 L 43.34 0 L 52.14 0 L 52.14 -3.3 L 49.67 -3.3 L 49.67 -35.2 L 52.14 -35.2 Z M 80.63 -38.5 L 80.63 0 L 84.48 0 L 84.48 -29.15 L 96.47 0 L 100.32 0 L 100.32 -38.5 L 96.47 -38.5 L 96.47 -9.35 L 84.48 -38.5 Z M 130.51 -38.5 L 130.51 0 L 134.36 0 L 134.36 -16.28 L 135.52 -18.09 L 144.81 0 L 148.94 0 L 137.78 -21.73 L 148.17 -38.5 L 144.04 -38.5 L 134.36 -22.93 L 134.36 -38.5 Z M 174.13 0 L 177.98 0 L 177.98 -13.75 L 181.83 -13.75 C 187.06 -13.75 191.18 -15.29 191.18 -22.55 L 191.18 -29.7 C 191.18 -37.07 187.06 -38.5 181.83 -38.5 L 174.13 -38.5 Z M 177.98 -17.05 L 177.98 -35.2 L 181.83 -35.2 C 185.19 -35.2 187.33 -34.16 187.33 -29.15 L 187.33 -23.1 C 187.33 -18.09 185.19 -17.05 181.83 -17.05 Z M 219.12 0 L 222.97 0 L 222.97 -14.3 L 226.82 -14.3 L 233.69 0 L 237.82 0 L 230.78 -14.74 C 234.03 -15.56 236.17 -17.82 236.17 -23.1 L 236.17 -29.7 C 236.17 -37.07 232.05 -38.5 226.82 -38.5 L 219.12 -38.5 Z M 222.97 -17.6 L 222.97 -35.2 L 226.82 -35.2 C 230.18 -35.2 232.32 -34.16 232.32 -29.15 L 232.32 -23.65 C 232.32 -18.64 230.18 -17.6 226.82 -17.6 Z M 264.66 -38.5 L 264.66 0 L 281.16 0 L 281.16 -3.3 L 268.51 -3.3 L 268.51 -17.6 L 277.86 -17.6 L 277.86 -20.9 L 268.51 -20.9 L 268.51 -35.2 L 280.61 -35.2 L 280.61 -38.5 Z M 316.8 0.55 C 321.97 0.55 326.15 -0.88 326.15 -8.25 L 326.15 -9.35 C 326.15 -18.21 311.3 -23.87 311.3 -29.15 C 311.3 -34.16 313.44 -35.2 316.8 -35.2 C 320.16 -35.2 322.3 -34.16 322.3 -29.15 L 322.3 -26.95 L 326.15 -26.95 L 326.15 -30.25 C 326.15 -37.62 322.03 -39.05 316.8 -39.05 C 311.63 -39.05 307.45 -37.62 307.45 -30.25 L 307.45 -29.15 C 307.45 -21.23 322.3 -15.56 322.3 -9.35 C 322.3 -4.34 320.16 -3.3 316.8 -3.3 C 313.44 -3.3 311.3 -4.34 311.3 -9.35 L 311.3 -12.21 L 307.45 -12.21 L 307.45 -8.25 C 307.45 -0.99 311.57 0.55 316.8 0.55 Z M 363.44 0.55 C 368.61 0.55 372.79 -0.88 372.79 -8.25 L 372.79 -9.35 C 372.79 -18.21 357.94 -23.87 357.94 -29.15 C 357.94 -34.16 360.08 -35.2 363.44 -35.2 C 366.8 -35.2 368.94 -34.16 368.94 -29.15 L 368.94 -26.95 L 372.79 -26.95 L 372.79 -30.25 C 372.79 -37.62 368.67 -39.05 363.44 -39.05 C 358.27 -39.05 354.09 -37.62 354.09 -30.25 L 354.09 -29.15 C 354.09 -21.23 368.94 -15.56 368.94 -9.35 C 368.94 -4.34 366.8 -3.3 363.44 -3.3 C 360.08 -3.3 357.94 -4.34 357.94 -9.35 L 357.94 -12.21 L 354.09 -12.21 L 354.09 -8.25 C 354.09 -0.99 358.21 0.55 363.44 0.55 Z" stroke-linecap="round" />
</g>
</g>
</g>
<g transform="matrix(1.9211538461538462 0 0 1.9211538461538462 648.0688461538462 397.83385065788775)" id="tagline-3a78d944-c0db-44d4-8ad5-60158c925687-logo"  >
<g style=""  paint-order="stroke"   >
		<g transform="matrix(1 0 0 1 0 0)" id="tagline-3a78d944-c0db-44d4-8ad5-60158c925687-logo-path-0"  >
<linearGradient id="SVGID_39397" gradientUnits="userSpaceOnUse" gradientTransform="matrix(1 0 0 1 10.5 -73.5)"  x1="-10.5" y1="-18.809699999999992" x2="-10.5" y2="100.19030000000001">
<stop offset="0%" style="stop-color:rgb(23,234,217);stop-opacity: 1"/>
<stop offset="100%" style="stop-color:rgb(96,120,234);stop-opacity: 1"/>
</linearGradient>
<path style="stroke: rgb(255,255,255); stroke-width: 0; stroke-dasharray: none; stroke-linecap: butt; stroke-dashoffset: 0; stroke-linejoin: miter; stroke-miterlimit: 4; fill: url(#SVGID_39397); fill-rule: nonzero; opacity: 1;"  paint-order="stroke"  transform=" translate(-23.625, 36.75)" d="M 10.5 -73.5 L 10.5 0 L 36.75 0 L 36.75 -6.3 L 17.85 -6.3 L 17.85 -73.5 Z" stroke-linecap="round" />
</g>
</g>
</g>
</svg>